<svg xmlns="http://www.w3.org/2000/svg" xmlns:xlink="http://www.w3.org/1999/xlink" width="500" zoomAndPan="magnify" viewBox="0 0 375 374.999991" height="500" preserveAspectRatio="xMidYMid meet" version="1.2"><defs><clipPath id="c5000daad6"><path d="M 0.308594 1.0625 L 105.378906 1.0625 L 105.378906 46.820312 L 0.308594 46.820312 Z M 0.308594 69.703125 L 105.378906 69.703125 L 105.378906 115.472656 L 0.308594 115.472656 Z M 0.308594 69.703125 "/></clipPath><clipPath id="019aa56f68"><path d="M 33.019531 25.402344 L 118.246094 25.402344 L 118.246094 140.980469 L 33.019531 140.980469 Z M 33.019531 25.402344 "/></clipPath><clipPath id="3206d6451e"><path d="M 174.441406 15.625 L 221 15.625 L 221 70.496094 L 174.441406 70.496094 Z M 174.441406 15.625 "/></clipPath><clipPath id="3474551e5a"><path d="M 224.523438 14.746094 L 277 14.746094 L 277 36.941406 L 224.523438 36.941406 Z M 224.523438 48.039062 L 277 48.039062 L 277 70.785156 L 224.523438 70.785156 Z M 224.523438 48.039062 "/></clipPath><clipPath id="770ce3b45e"><path d="M 274.878906 13.871094 L 328.582031 13.871094 L 328.582031 68.742188 L 274.878906 68.742188 Z M 274.878906 13.871094 "/></clipPath><clipPath id="e635a2d217"><path d="M 127.59375 15.625 L 168 15.625 L 168 70.496094 L 127.59375 70.496094 Z M 127.59375 15.625 "/></clipPath><clipPath id="e7291864cb"><path d="M 330.363281 15.625 L 370.960938 15.625 L 370.960938 70.496094 L 330.363281 70.496094 Z M 330.363281 15.625 "/></clipPath><clipPath id="9016c84862"><path d="M 131.363281 75.832031 L 164.050781 75.832031 L 164.050781 108.519531 L 131.363281 108.519531 Z M 131.363281 75.832031 "/></clipPath><clipPath id="2a584f9be2"><path d="M 194.472656 75.832031 L 221.324219 75.832031 L 221.324219 108.519531 L 194.472656 108.519531 Z M 194.472656 75.832031 "/></clipPath><clipPath id="c423723ee1"><path d="M 167.3125 75.902344 L 191.832031 75.902344 L 191.832031 108.589844 L 167.3125 108.589844 Z M 167.3125 75.902344 "/></clipPath><clipPath id="39c6d6d917"><path d="M 223.832031 76.511719 L 261.191406 76.511719 L 261.191406 108.03125 L 223.832031 108.03125 Z M 223.832031 76.511719 "/></clipPath><clipPath id="cce84b3d70"><path d="M 263.507812 76.53125 L 289.191406 76.53125 L 289.191406 108.050781 L 263.507812 108.050781 Z M 263.507812 76.53125 "/></clipPath><clipPath id="cc0e6ad95f"><path d="M 291.542969 76.75 L 305.550781 76.75 L 305.550781 108.195312 L 291.542969 108.195312 Z M 291.542969 76.75 "/></clipPath><clipPath id="e9ce331266"><path d="M 307.824219 77.191406 L 338.175781 77.191406 L 338.175781 108.710938 L 307.824219 108.710938 Z M 307.824219 77.191406 "/></clipPath><clipPath id="50c7aab652"><path d="M 341 76 L 370.960938 76 L 370.960938 109 L 341 109 Z M 341 76 "/></clipPath><clipPath id="168e7a5dde"><path d="M 341.226562 77.066406 L 370.410156 76.710938 L 370.792969 108.230469 L 341.609375 108.585938 Z M 341.226562 77.066406 "/></clipPath><clipPath id="f8af2918e7"><path d="M 341.226562 77.066406 L 370.410156 76.710938 L 370.792969 108.230469 L 341.609375 108.585938 Z M 341.226562 77.066406 "/></clipPath><clipPath id="ff38f2117e"><path d="M 341.226562 77.066406 L 370.410156 76.710938 L 370.792969 108.230469 L 341.609375 108.585938 Z M 341.226562 77.066406 "/></clipPath><clipPath id="ef126153c2"><rect x="0" width="371" y="0" height="142"/></clipPath></defs><g id="c30e342a31"><rect x="0" width="375" y="0" height="374.999991" style="fill:#ffffff;fill-opacity:1;stroke:none;"/><rect x="0" width="375" y="0" height="374.999991" style="fill:#ffffff;fill-opacity:1;stroke:none;"/><g transform="matrix(1,0,0,1,2,67)"><g clip-path="url(#ef126153c2)"><g clip-rule="nonzero" clip-path="url(#c5000daad6)"><path style=" stroke:none;fill-rule:nonzero;fill:#000000;fill-opacity:1;" d="M 89.9375 16.601562 C 94.761719 21.625 98.535156 27.703125 101.257812 34.832031 C 103.976562 41.914062 105.339844 49.761719 105.339844 58.375 C 105.339844 67.046875 103.953125 74.917969 101.179688 81.996094 C 98.410156 89.074219 94.558594 95.101562 89.628906 100.078125 C 84.855469 105 79.3125 108.796875 72.996094 111.464844 C 66.683594 114.128906 59.957031 115.464844 52.824219 115.464844 C 45.226562 115.464844 38.191406 114.054688 31.722656 111.234375 C 25.308594 108.359375 19.789062 104.386719 15.167969 99.308594 C 10.546875 94.332031 6.902344 88.304688 4.234375 81.226562 C 1.617188 74.097656 0.304688 66.480469 0.304688 58.375 C 0.304688 49.503906 1.691406 41.605469 4.464844 34.679688 C 7.238281 27.703125 11.0625 21.675781 15.9375 16.601562 C 20.765625 11.574219 26.359375 7.726562 32.726562 5.058594 C 39.140625 2.390625 45.839844 1.058594 52.824219 1.058594 C 60.0625 1.058594 66.886719 2.417969 73.304688 5.136719 C 79.722656 7.855469 85.265625 11.675781 89.9375 16.601562 Z M 78.464844 94 C 81.339844 89.332031 83.417969 84.046875 84.703125 78.148438 C 86.035156 72.25 86.703125 65.660156 86.703125 58.375 C 86.703125 50.886719 85.960938 44.015625 84.472656 37.757812 C 83.035156 31.5 80.902344 26.164062 78.078125 21.753906 C 75.257812 17.394531 71.714844 14.007812 67.453125 11.597656 C 63.191406 9.136719 58.316406 7.90625 52.824219 7.90625 C 46.664062 7.90625 41.425781 9.316406 37.113281 12.136719 C 32.800781 14.957031 29.285156 18.726562 26.566406 23.445312 C 23.996094 27.960938 22.074219 33.242188 20.789062 39.296875 C 19.558594 45.347656 18.941406 51.707031 18.941406 58.375 C 18.941406 65.761719 19.609375 72.429688 20.945312 78.378906 C 22.277344 84.332031 24.382812 89.613281 27.257812 94.230469 C 30.03125 98.742188 33.519531 102.28125 37.730469 104.847656 C 41.941406 107.359375 46.96875 108.617188 52.824219 108.617188 C 58.316406 108.617188 63.269531 107.335938 67.683594 104.769531 C 72.097656 102.207031 75.691406 98.613281 78.464844 94 Z M 78.464844 94 "/></g><g clip-rule="nonzero" clip-path="url(#019aa56f68)"><path style=" stroke:none;fill-rule:nonzero;fill:#cca300;fill-opacity:1;" d="M 116.886719 122.230469 L 116.074219 122.230469 C 115.132812 122.230469 114.335938 122.964844 114.296875 123.90625 C 114.210938 125.203125 114.042969 127.105469 113.710938 129.113281 C 113.375 131.054688 111.683594 132.457031 109.714844 132.457031 L 62.378906 132.457031 C 60.640625 132.457031 59.242188 131.054688 59.242188 129.320312 L 59.242188 34.140625 C 59.242188 32.257812 60.496094 30.585938 62.316406 30.085938 C 63.863281 29.644531 65.410156 29.351562 66.433594 29.144531 C 67.101562 29.019531 67.5625 28.433594 67.5625 27.761719 L 67.5625 26.78125 C 67.5625 26.027344 66.957031 25.421875 66.203125 25.421875 L 45.085938 25.421875 C 43.015625 25.421875 41.34375 27.09375 41.34375 29.164062 L 41.34375 132.4375 C 41.34375 134.316406 40.085938 135.992188 38.269531 136.492188 C 36.722656 136.933594 35.152344 137.222656 34.148438 137.433594 C 33.5 137.601562 33.019531 138.164062 33.019531 138.855469 L 33.019531 139.839844 C 33.019531 140.589844 33.625 141.199219 34.378906 141.199219 L 116.53125 141.199219 C 117.621094 141.199219 118.519531 140.320312 118.519531 139.210938 L 118.519531 123.882812 C 118.519531 122.964844 117.789062 122.230469 116.886719 122.230469 Z M 116.886719 122.230469 "/></g><g clip-rule="nonzero" clip-path="url(#3206d6451e)"><path style=" stroke:none;fill-rule:nonzero;fill:#cca300;fill-opacity:1;" d="M 203.617188 17.683594 C 211.996094 17.683594 215.953125 21.757812 217.769531 28.035156 L 220.984375 28.035156 L 220.984375 15.625 L 174.457031 15.625 L 174.457031 17.683594 L 179.980469 17.683594 L 179.980469 68.179688 L 174.457031 68.179688 L 174.457031 70.238281 L 220.996094 70.238281 L 220.996094 57.828125 L 217.78125 57.828125 C 215.953125 64.105469 211.996094 68.179688 203.625 68.179688 L 188.554688 68.179688 L 188.554688 42.289062 L 204.835938 42.289062 L 204.835938 39.3125 L 188.554688 39.3125 L 188.554688 17.683594 Z M 203.617188 17.683594 "/></g><g clip-rule="nonzero" clip-path="url(#3474551e5a)"><path style=" stroke:none;fill-rule:nonzero;fill:#cca300;fill-opacity:1;" d="M 276.636719 47.78125 C 276.035156 47.859375 275.226562 47.980469 274.203125 48.15625 C 273.207031 48.304688 272.394531 48.53125 271.773438 48.832031 C 271.023438 49.203125 270.488281 49.742188 270.164062 50.4375 C 269.863281 51.113281 269.714844 51.910156 269.714844 52.832031 L 269.714844 56.945312 C 269.714844 59.9375 269.726562 61.960938 269.753906 63.007812 C 269.800781 64.054688 269.851562 64.914062 269.902344 65.585938 C 266.585938 67.082031 263.28125 68.230469 259.988281 69.027344 C 256.699219 69.828125 253.46875 70.226562 250.300781 70.226562 C 246.910156 70.226562 243.644531 69.589844 240.503906 68.316406 C 237.359375 67.046875 234.617188 65.238281 232.273438 62.894531 C 229.90625 60.523438 228.023438 57.644531 226.625 54.253906 C 225.230469 50.863281 224.53125 47.070312 224.53125 42.882812 C 224.53125 38.84375 225.191406 35.101562 226.511719 31.660156 C 227.859375 28.195312 229.753906 25.191406 232.199219 22.648438 C 234.566406 20.152344 237.386719 18.222656 240.652344 16.851562 C 243.945312 15.453125 247.460938 14.753906 251.199219 14.753906 C 254.191406 14.753906 256.796875 15.117188 259.015625 15.839844 C 261.238281 16.5625 263.195312 17.4375 264.890625 18.457031 L 266.421875 15.914062 L 269.414062 15.914062 L 269.753906 34.46875 L 266.683594 34.46875 C 266.160156 32.421875 265.511719 30.414062 264.742188 28.445312 C 263.96875 26.449219 262.96875 24.667969 261.75 23.097656 C 260.527344 21.523438 259.03125 20.277344 257.257812 19.355469 C 255.515625 18.40625 253.417969 17.933594 250.976562 17.933594 C 248.308594 17.933594 245.925781 18.484375 243.832031 19.582031 C 241.738281 20.652344 239.917969 22.261719 238.371094 24.40625 C 236.847656 26.476562 235.675781 29.054688 234.855469 32.148438 C 234.03125 35.238281 233.621094 38.695312 233.621094 42.507812 C 233.621094 45.875 234.019531 49.054688 234.816406 52.046875 C 235.640625 55.015625 236.824219 57.582031 238.371094 59.753906 C 239.917969 61.972656 241.847656 63.71875 244.167969 64.988281 C 246.488281 66.261719 249.117188 66.894531 252.058594 66.894531 C 254.253906 66.894531 256.25 66.558594 258.046875 65.886719 C 259.867188 65.214844 261.148438 64.503906 261.898438 63.753906 C 262.097656 62.457031 262.195312 61.148438 262.195312 59.828125 C 262.222656 58.503906 262.234375 57.382812 262.234375 56.460938 L 262.234375 53.542969 C 262.234375 52.496094 262.085938 51.574219 261.785156 50.773438 C 261.511719 49.953125 260.925781 49.355469 260.027344 48.980469 C 259.203125 48.605469 258.082031 48.332031 256.660156 48.15625 C 255.265625 47.957031 254.167969 47.832031 253.371094 47.78125 L 253.371094 45.050781 L 276.636719 45.050781 Z M 276.636719 47.78125 "/></g><g clip-rule="nonzero" clip-path="url(#770ce3b45e)"><path style=" stroke:none;fill-rule:nonzero;fill:#cca300;fill-opacity:1;" d="M 324.484375 66.363281 L 302.539062 13.871094 L 299.128906 13.871094 L 277.171875 66.363281 L 274.894531 66.363281 L 274.894531 68.488281 L 282.664062 68.488281 L 282.664062 66.363281 L 280.582031 66.363281 L 287.644531 49.472656 L 308.042969 49.472656 L 315.105469 66.363281 L 311.289062 66.363281 L 311.289062 68.488281 L 328.582031 68.488281 L 328.582031 66.363281 Z M 288.851562 46.597656 L 297.855469 25.085938 L 306.855469 46.597656 Z M 288.851562 46.597656 "/></g><g clip-rule="nonzero" clip-path="url(#e635a2d217)"><path style=" stroke:none;fill-rule:nonzero;fill:#cca300;fill-opacity:1;" d="M 167.140625 61.285156 L 166.753906 61.285156 C 166.3125 61.285156 165.9375 61.628906 165.917969 62.074219 C 165.878906 62.683594 165.800781 63.582031 165.640625 64.527344 C 165.484375 65.445312 164.683594 66.105469 163.757812 66.105469 L 141.4375 66.105469 C 140.617188 66.105469 139.957031 65.445312 139.957031 64.625 L 139.957031 19.746094 C 139.957031 18.859375 140.550781 18.070312 141.40625 17.835938 C 142.136719 17.628906 142.867188 17.488281 143.351562 17.390625 C 143.664062 17.332031 143.882812 17.054688 143.882812 16.742188 L 143.882812 16.277344 C 143.882812 15.921875 143.597656 15.636719 143.242188 15.636719 L 133.285156 15.636719 C 132.308594 15.636719 131.519531 16.425781 131.519531 17.402344 L 131.519531 66.09375 C 131.519531 66.984375 130.925781 67.773438 130.070312 68.007812 C 129.339844 68.214844 128.601562 68.351562 128.128906 68.453125 C 127.820312 68.53125 127.59375 68.796875 127.59375 69.121094 L 127.59375 69.585938 C 127.59375 69.941406 127.878906 70.226562 128.234375 70.226562 L 166.972656 70.226562 C 167.484375 70.226562 167.910156 69.8125 167.910156 69.289062 L 167.910156 62.0625 C 167.910156 61.628906 167.5625 61.285156 167.140625 61.285156 Z M 167.140625 61.285156 "/></g><g clip-rule="nonzero" clip-path="url(#e7291864cb)"><path style=" stroke:none;fill-rule:nonzero;fill:#cca300;fill-opacity:1;" d="M 369.90625 61.285156 L 369.523438 61.285156 C 369.078125 61.285156 368.703125 61.628906 368.683594 62.074219 C 368.644531 62.683594 368.566406 63.582031 368.410156 64.527344 C 368.25 65.445312 367.453125 66.105469 366.527344 66.105469 L 344.203125 66.105469 C 343.386719 66.105469 342.726562 65.445312 342.726562 64.625 L 342.726562 19.746094 C 342.726562 18.859375 343.316406 18.070312 344.175781 17.835938 C 344.90625 17.628906 345.632812 17.488281 346.117188 17.390625 C 346.433594 17.332031 346.648438 17.054688 346.648438 16.742188 L 346.648438 16.277344 C 346.648438 15.921875 346.363281 15.636719 346.007812 15.636719 L 336.050781 15.636719 C 335.074219 15.636719 334.285156 16.425781 334.285156 17.402344 L 334.285156 66.09375 C 334.285156 66.984375 333.695312 67.773438 332.835938 68.007812 C 332.109375 68.214844 331.367188 68.351562 330.894531 68.453125 C 330.589844 68.53125 330.363281 68.796875 330.363281 69.121094 L 330.363281 69.585938 C 330.363281 69.941406 330.648438 70.226562 331.003906 70.226562 L 369.738281 70.226562 C 370.253906 70.226562 370.675781 69.8125 370.675781 69.289062 L 370.675781 62.0625 C 370.675781 61.628906 370.332031 61.285156 369.90625 61.285156 Z M 369.90625 61.285156 "/></g><g clip-rule="nonzero" clip-path="url(#9016c84862)"><path style=" stroke:none;fill-rule:nonzero;fill:#000000;fill-opacity:1;" d="M 147.703125 75.832031 C 138.679688 75.832031 131.363281 83.148438 131.363281 92.175781 C 131.363281 101.199219 138.679688 108.515625 147.703125 108.515625 C 156.730469 108.515625 164.050781 101.199219 164.050781 92.175781 C 164.050781 83.148438 156.730469 75.832031 147.703125 75.832031 Z M 147.703125 107.246094 C 141.621094 107.246094 136.691406 100.496094 136.691406 92.175781 C 136.691406 83.855469 141.621094 77.105469 147.703125 77.105469 C 153.789062 77.105469 158.722656 83.855469 158.722656 92.175781 C 158.722656 100.496094 153.789062 107.246094 147.703125 107.246094 Z M 147.703125 107.246094 "/></g><g clip-rule="nonzero" clip-path="url(#2a584f9be2)"><path style=" stroke:none;fill-rule:nonzero;fill:#000000;fill-opacity:1;" d="M 220.179688 77.859375 C 220.453125 77.757812 220.707031 77.667969 220.90625 77.605469 C 221.160156 77.519531 221.324219 77.289062 221.324219 77.03125 L 221.324219 76.457031 C 221.324219 76.117188 221.039062 75.839844 220.691406 75.839844 L 215.976562 75.839844 C 215.636719 75.839844 215.351562 76.117188 215.351562 76.457031 L 215.351562 77.046875 C 215.351562 77.296875 215.507812 77.519531 215.746094 77.609375 C 216.011719 77.710938 216.367188 77.863281 216.683594 78.035156 C 216.851562 78.128906 216.914062 78.335938 216.808594 78.496094 L 209.816406 90.070312 C 209.71875 90.234375 209.476562 90.234375 209.378906 90.070312 L 202.351562 78.4375 C 202.25 78.269531 202.316406 78.050781 202.492188 77.96875 C 202.890625 77.785156 203.289062 77.65625 203.582031 77.574219 C 203.847656 77.503906 204.027344 77.265625 204.027344 76.996094 L 204.027344 76.453125 C 204.027344 76.109375 203.746094 75.832031 203.394531 75.832031 L 195.109375 75.832031 C 194.757812 75.839844 194.472656 76.117188 194.472656 76.457031 L 194.472656 76.984375 C 194.472656 77.261719 194.671875 77.503906 194.953125 77.566406 C 195.230469 77.632812 195.605469 77.726562 196.023438 77.863281 C 196.675781 78.078125 197.222656 78.519531 197.570312 79.097656 L 205.113281 91.582031 C 205.347656 91.972656 205.476562 92.421875 205.476562 92.875 L 205.476562 105.1875 C 205.476562 105.8125 205.0625 106.367188 204.457031 106.558594 C 204.175781 106.644531 203.914062 106.722656 203.707031 106.777344 C 203.460938 106.839844 203.289062 107.066406 203.289062 107.320312 L 203.289062 107.921875 C 203.289062 108.253906 203.5625 108.519531 203.902344 108.519531 L 212.234375 108.519531 C 212.574219 108.519531 212.847656 108.253906 212.847656 107.921875 L 212.847656 107.320312 C 212.847656 107.066406 212.675781 106.847656 212.429688 106.777344 C 212.222656 106.722656 211.957031 106.644531 211.679688 106.558594 C 211.074219 106.367188 210.660156 105.808594 210.660156 105.1875 L 210.660156 92.875 C 210.660156 92.421875 210.789062 91.972656 211.023438 91.582031 L 218.445312 79.296875 C 218.832031 78.636719 219.449219 78.128906 220.179688 77.859375 Z M 220.179688 77.859375 "/></g><g clip-rule="nonzero" clip-path="url(#c423723ee1)"><path style=" stroke:none;fill-rule:nonzero;fill:#000000;fill-opacity:1;" d="M 191.363281 103.230469 L 191.128906 103.230469 C 190.859375 103.230469 190.632812 103.4375 190.621094 103.703125 C 190.59375 104.070312 190.546875 104.605469 190.453125 105.171875 C 190.355469 105.722656 189.871094 106.117188 189.304688 106.117188 L 175.730469 106.117188 C 175.234375 106.117188 174.832031 105.722656 174.832031 105.234375 L 174.832031 78.367188 C 174.832031 77.835938 175.191406 77.363281 175.714844 77.222656 C 176.15625 77.097656 176.601562 77.015625 176.894531 76.957031 C 177.085938 76.921875 177.21875 76.753906 177.21875 76.566406 L 177.21875 76.289062 C 177.21875 76.078125 177.042969 75.90625 176.828125 75.90625 L 170.773438 75.90625 C 170.179688 75.90625 169.699219 76.378906 169.699219 76.960938 L 169.699219 106.113281 C 169.699219 106.644531 169.339844 107.117188 168.820312 107.257812 C 168.375 107.382812 167.925781 107.464844 167.636719 107.523438 C 167.453125 107.570312 167.3125 107.730469 167.3125 107.925781 L 167.3125 108.203125 C 167.3125 108.414062 167.488281 108.585938 167.703125 108.585938 L 191.261719 108.585938 C 191.574219 108.585938 191.832031 108.335938 191.832031 108.023438 L 191.832031 103.699219 C 191.832031 103.4375 191.621094 103.230469 191.363281 103.230469 Z M 191.363281 103.230469 "/></g><g clip-rule="nonzero" clip-path="url(#39c6d6d917)"><path style=" stroke:none;fill-rule:nonzero;fill:#000000;fill-opacity:1;" d="M 258.621094 106.640625 L 258.621094 77.738281 L 261.1875 77.738281 L 261.1875 76.511719 L 253.554688 76.511719 L 242.515625 100.410156 L 231.535156 76.511719 L 223.894531 76.511719 L 223.894531 77.738281 L 226.582031 77.738281 L 226.582031 106.804688 L 223.839844 106.804688 L 223.839844 108.03125 L 231.089844 108.03125 L 231.089844 106.804688 L 228.488281 106.804688 L 228.488281 80.90625 L 240.953125 108.03125 L 253.554688 80.65625 L 253.554688 106.640625 L 250.984375 106.640625 L 250.964844 108.03125 L 261.167969 108.03125 L 261.1875 106.640625 Z M 258.621094 106.640625 "/></g><g clip-rule="nonzero" clip-path="url(#cce84b3d70)"><path style=" stroke:none;fill-rule:nonzero;fill:#000000;fill-opacity:1;" d="M 280.535156 76.53125 L 263.511719 76.53125 L 263.511719 77.46875 L 266.089844 77.46875 L 266.089844 92.472656 L 263.511719 92.472656 L 263.511719 93.414062 L 266.089844 93.414062 L 266.089844 106.824219 L 263.511719 106.824219 L 263.511719 108.050781 L 273.746094 108.050781 L 273.746094 106.824219 L 271.167969 106.824219 L 271.167969 93.421875 L 280.535156 93.421875 C 285.3125 93.421875 289.191406 89.640625 289.191406 84.980469 C 289.191406 80.316406 285.3125 76.53125 280.535156 76.53125 Z M 275.386719 92.476562 L 271.167969 92.476562 L 271.167969 77.46875 L 275.386719 77.46875 C 280.164062 77.46875 284.042969 80.828125 284.042969 84.972656 C 284.042969 89.117188 280.164062 92.476562 275.386719 92.476562 Z M 275.386719 92.476562 "/></g><g clip-rule="nonzero" clip-path="url(#cc0e6ad95f)"><path style=" stroke:none;fill-rule:nonzero;fill:#1a1a1a;fill-opacity:1;" d="M 305.546875 107.335938 L 305.546875 108.195312 L 291.542969 108.195312 L 291.542969 107.335938 L 292.699219 107.335938 C 294.050781 107.335938 295.03125 106.957031 295.640625 106.203125 C 296.027344 105.707031 296.21875 104.515625 296.21875 102.628906 L 296.21875 82.3125 C 296.21875 80.722656 296.113281 79.671875 295.90625 79.160156 C 295.746094 78.773438 295.417969 78.441406 294.917969 78.164062 C 294.210938 77.792969 293.472656 77.605469 292.699219 77.605469 L 291.542969 77.605469 L 291.542969 76.75 L 305.546875 76.75 L 305.546875 77.605469 L 304.367188 77.605469 C 303.035156 77.605469 302.0625 77.984375 301.449219 78.742188 C 301.050781 79.238281 300.847656 80.429688 300.847656 82.3125 L 300.847656 102.628906 C 300.847656 104.222656 300.953125 105.273438 301.160156 105.785156 C 301.320312 106.171875 301.660156 106.503906 302.175781 106.78125 C 302.863281 107.152344 303.597656 107.335938 304.367188 107.335938 L 305.546875 107.335938 "/></g><g clip-rule="nonzero" clip-path="url(#e9ce331266)"><path style=" stroke:none;fill-rule:nonzero;fill:#000000;fill-opacity:1;" d="M 335.855469 107.484375 L 323.453125 77.191406 L 321.527344 77.191406 L 309.117188 107.484375 L 307.832031 107.484375 L 307.832031 108.710938 L 312.222656 108.710938 L 312.222656 107.484375 L 311.046875 107.484375 L 315.035156 97.738281 L 326.5625 97.738281 L 330.550781 107.484375 L 328.398438 107.484375 L 328.398438 108.710938 L 338.167969 108.710938 L 338.167969 107.484375 Z M 315.71875 96.078125 L 320.804688 83.660156 L 325.890625 96.078125 Z M 315.71875 96.078125 "/></g><g clip-rule="nonzero" clip-path="url(#50c7aab652)"><g clip-rule="nonzero" clip-path="url(#168e7a5dde)"><g clip-rule="nonzero" clip-path="url(#f8af2918e7)"><g clip-rule="nonzero" clip-path="url(#ff38f2117e)"><path style=" stroke:none;fill-rule:nonzero;fill:#000000;fill-opacity:1;" d="M 354.886719 76.90625 L 341.226562 77.070312 L 341.238281 78.132812 L 344.65625 78.09375 L 345.015625 107.476562 L 341.59375 107.519531 L 341.609375 108.582031 L 355.269531 108.414062 C 363.84375 108.3125 370.707031 101.171875 370.601562 92.46875 C 370.496094 83.773438 363.460938 76.800781 354.886719 76.90625 Z M 350.949219 107.410156 L 349.898438 107.425781 L 349.539062 78.03125 L 350.59375 78.019531 C 358.585938 77.921875 365.148438 84.421875 365.25 92.539062 C 365.347656 100.65625 358.949219 107.3125 350.949219 107.410156 Z M 350.949219 107.410156 "/></g></g></g></g></g></g></g></svg>